# Blender3D v249 OBJ File: LPPlayer.blend
# www.blender3d.org
mtllib LPDisc.mtl
v 12.643444 12.643686 20.781891
v 14.867471 9.933702 20.781891
v 16.520071 6.841905 20.781891
v 17.537737 3.487109 20.781891
v 17.881361 -0.001762 20.781891
v 17.537737 -3.490633 20.781891
v 16.520071 -6.845429 20.781891
v 14.867471 -9.937229 20.781891
v 12.643444 -12.647214 20.781891
v 9.933459 -14.871241 20.781891
v 6.841660 -16.523842 20.781891
v 3.486861 -17.541508 20.781891
v -0.002012 -17.885132 20.781891
v -3.490885 -17.541506 20.781891
v -6.845683 -16.523838 20.781891
v -9.937482 -14.871235 20.781891
v -12.647465 -12.647206 20.781891
v -14.871490 -9.937220 20.781891
v -16.524090 -6.845418 20.781891
v -17.541752 -3.490620 20.781891
v -17.885374 -0.001746 20.781891
v -17.541746 3.487127 20.781891
v -16.524076 6.841923 20.781891
v -14.871471 9.933722 20.781891
v -12.647441 12.643703 20.781891
v -9.937453 14.867726 20.781891
v -6.845651 16.520325 20.781891
v -3.490851 17.537985 20.781891
v -0.001978 17.881603 20.781891
v 3.486895 17.537973 20.781891
v 6.841691 16.520302 20.781891
v 9.933488 14.867695 20.781891
v -0.002006 -0.001764 20.781891
vt 1.062840 0.864977
vt 0.980204 0.965669
vt 0.510352 0.495817
vt 1.124244 0.750099
vt 1.162056 0.625449
vt 1.174823 0.495817
vt 1.162056 0.366185
vt 1.124244 0.241535
vt 1.062840 0.126656
vt 0.980204 0.025964
vt 0.879512 -0.056671
vt 0.764634 -0.118075
vt 0.639984 -0.155887
vt 0.510352 -0.168655
vt 0.380720 -0.155887
vt 0.256069 -0.118075
vt 0.141191 -0.056671
vt 0.040499 0.025965
vt -0.042136 0.126657
vt -0.103540 0.241535
vt -0.141352 0.366185
vt -0.154120 0.495817
vt -0.141352 0.625449
vt -0.103539 0.750100
vt -0.042135 0.864978
vt 0.040500 0.965669
vt 0.141192 1.048305
vt 0.256071 1.109709
vt 0.380721 1.147521
vt 0.510353 1.160288
vt 0.639985 1.147520
vt 0.764635 1.109708
vt 0.879514 1.048303
vn 0.000000 0.000000 1.000000
usemtl None_texDisc.jpg
s off
f 2/1/1 1/2/1 33/3/1
f 33/3/1 3/4/1 2/1/1
f 33/3/1 4/5/1 3/4/1
f 33/3/1 5/6/1 4/5/1
f 33/3/1 6/7/1 5/6/1
f 33/3/1 7/8/1 6/7/1
f 33/3/1 8/9/1 7/8/1
f 33/3/1 9/10/1 8/9/1
f 33/3/1 10/11/1 9/10/1
f 33/3/1 11/12/1 10/11/1
f 33/3/1 12/13/1 11/12/1
f 33/3/1 13/14/1 12/13/1
f 33/3/1 14/15/1 13/14/1
f 33/3/1 15/16/1 14/15/1
f 33/3/1 16/17/1 15/16/1
f 33/3/1 17/18/1 16/17/1
f 33/3/1 18/19/1 17/18/1
f 33/3/1 19/20/1 18/19/1
f 33/3/1 20/21/1 19/20/1
f 33/3/1 21/22/1 20/21/1
f 33/3/1 22/23/1 21/22/1
f 33/3/1 23/24/1 22/23/1
f 33/3/1 24/25/1 23/24/1
f 33/3/1 25/26/1 24/25/1
f 33/3/1 26/27/1 25/26/1
f 33/3/1 27/28/1 26/27/1
f 33/3/1 28/29/1 27/28/1
f 33/3/1 29/30/1 28/29/1
f 33/3/1 30/31/1 29/30/1
f 33/3/1 31/32/1 30/31/1
f 33/3/1 32/33/1 31/32/1
f 33/3/1 1/2/1 32/33/1
