# Blender3D v249 OBJ File: pistaretablend.blend
# www.blender3d.org
mtllib pistaretablend.mtl
o Cube
v 1.326806 -0.134156 -29.699987
v 1.326806 -0.134153 29.699989
v -1.326806 -0.134153 29.699984
v -1.326805 -0.134156 -29.700001
v 1.326806 0.016373 -29.699974
v 1.326805 0.016376 29.700006
v -1.326806 0.016376 29.699978
v -1.326806 0.016373 -29.699989
v -0.172484 -0.134156 -29.699993
v -0.172485 -0.134153 29.699986
v -0.172484 0.016373 -29.699984
v -0.172485 0.016376 29.699989
v 0.157359 -0.134156 -29.699993
v 0.157359 -0.134153 29.699986
v 0.157360 0.016373 -29.699982
v 0.157358 0.016376 29.699993
v 1.326806 -0.134156 -27.415373
v 1.326806 -0.134156 -25.130758
v 1.326806 -0.134155 -22.846144
v 1.326806 -0.134155 -20.561529
v 4.545455 -0.134155 -18.276915
v 4.545455 -0.134155 -15.992301
v 4.545455 -0.134155 -13.707685
v 4.545455 -0.134155 -11.423071
v 1.326806 -0.134155 -9.138456
v -0.901490 -0.134155 -6.853842
v -0.901490 -0.134155 -4.569228
v -0.901490 -0.134155 -2.284614
v -0.901490 -0.134154 0.000001
v 1.326806 -0.134154 2.284617
v 4.050279 -0.134154 4.569230
v 4.050279 -0.134154 6.853846
v 4.050279 -0.134154 9.138458
v 4.050279 -0.134154 11.423075
v 1.326806 -0.134154 13.707687
v -1.644255 -0.134154 15.992303
v -1.644255 -0.134154 18.276915
v -1.644255 -0.134154 20.561531
v -1.644255 -0.134154 22.846144
v 1.326806 -0.134153 25.130760
v 1.326806 -0.134153 27.415373
v -1.326806 -0.134153 27.415369
v -1.326806 -0.134153 25.130754
v -4.297867 -0.134154 22.846140
v -4.297867 -0.134154 20.561525
v -4.297867 -0.134154 18.276911
v -4.297867 -0.134154 15.992295
v -1.326806 -0.134154 13.707680
v 1.396667 -0.134154 11.423065
v 1.396667 -0.134154 9.138451
v 1.396667 -0.134154 6.853836
v 1.396667 -0.134154 4.569221
v -1.326806 -0.134154 2.284607
v -3.555101 -0.134154 -0.000008
v -3.555101 -0.134155 -2.284624
v -3.555101 -0.134155 -4.569237
v -3.555101 -0.134155 -6.853853
v -1.326805 -0.134155 -9.138467
v 1.891845 -0.134155 -11.423082
v 1.891845 -0.134155 -13.707695
v 1.891845 -0.134155 -15.992311
v 1.891845 -0.134155 -18.276924
v -1.326805 -0.134155 -20.561543
v -1.326805 -0.134155 -22.846155
v -1.326805 -0.134156 -25.130772
v -1.326805 -0.134156 -27.415384
v 1.326806 0.016374 -27.415359
v 1.326806 0.016374 -25.130745
v 1.326806 0.016374 -22.846130
v 1.326806 0.016374 -20.561514
v 4.545456 0.016374 -18.276899
v 4.545456 0.016374 -15.992285
v 4.545455 0.016374 -13.707670
v 4.545455 0.016374 -11.423056
v 1.326806 0.016374 -9.138441
v -0.901490 0.016374 -6.853827
v -0.901490 0.016375 -4.569212
v -0.901490 0.016375 -2.284598
v -0.901490 0.016375 0.000017
v 1.326806 0.016375 2.284633
v 4.050278 0.016375 4.569246
v 4.050278 0.016375 6.853862
v 4.050278 0.016375 9.138474
v 4.050278 0.016375 11.423091
v 1.326805 0.016375 13.707704
v -1.644256 0.016375 15.992320
v -1.644256 0.016376 18.276934
v -1.644256 0.016376 20.561550
v -1.644256 0.016376 22.846163
v 1.326805 0.016376 25.130777
v 1.326805 0.016376 27.415390
v -1.326806 0.016376 27.415365
v -1.326806 0.016376 25.130751
v -4.297867 0.016376 22.846136
v -4.297867 0.016376 20.561522
v -4.297867 0.016376 18.276909
v -4.297867 0.016375 15.992294
v -1.326806 0.016375 13.707679
v 1.396667 0.016375 11.423065
v 1.396667 0.016375 9.138451
v 1.396667 0.016375 6.853837
v 1.396667 0.016375 4.569222
v -1.326806 0.016375 2.284609
v -3.555102 0.016375 -0.000005
v -3.555102 0.016375 -2.284621
v -3.555102 0.016375 -4.569233
v -3.555102 0.016374 -6.853849
v -1.326806 0.016374 -9.138461
v 1.891844 0.016374 -11.423078
v 1.891844 0.016374 -13.707689
v 1.891844 0.016374 -15.992305
v 1.891844 0.016374 -18.276917
v -1.326806 0.016374 -20.561533
v -1.326806 0.016374 -22.846146
v -1.326806 0.016374 -25.130760
v -1.326806 0.016374 -27.415373
v -0.172484 -0.134156 -27.415379
v -0.172484 -0.134156 -25.130764
v -0.172485 -0.134155 -22.846149
v -0.172485 -0.134155 -20.561535
v 3.046165 -0.134155 -18.276918
v 3.046165 -0.134155 -15.992307
v 3.046165 -0.134155 -13.707690
v 3.046165 -0.134155 -11.423076
v -0.172485 -0.134155 -9.138461
v -2.400781 -0.134155 -6.853847
v -2.400781 -0.134155 -4.569232
v -2.400781 -0.134155 -2.284618
v -2.400781 -0.134154 -0.000004
v -0.172485 -0.134154 2.284613
v 2.550988 -0.134154 4.569225
v 2.550988 -0.134154 6.853841
v 2.550988 -0.134154 9.138454
v 2.550988 -0.134154 11.423070
v -0.172485 -0.134154 13.707683
v -3.143546 -0.134154 15.992299
v -3.143546 -0.134154 18.276913
v -3.143546 -0.134154 20.561527
v -3.143546 -0.134154 22.846140
v -0.172485 -0.134153 25.130756
v -0.172485 -0.134153 27.415369
v -0.172484 0.016374 -27.415369
v -0.172485 0.016374 -25.130754
v -0.172485 0.016374 -22.846140
v -0.172485 0.016374 -20.561527
v 3.046165 0.016374 -18.276913
v 3.046165 0.016374 -15.992297
v 3.046165 0.016374 -13.707683
v 3.046165 0.016374 -11.423069
v -0.172485 0.016374 -9.138454
v -2.400781 0.016374 -6.853840
v -2.400781 0.016375 -4.569226
v -2.400781 0.016375 -2.284611
v -2.400781 0.016375 0.000003
v -0.172485 0.016375 2.284619
v 2.550988 0.016375 4.569231
v 2.550988 0.016375 6.853847
v 2.550988 0.016375 9.138459
v 2.550988 0.016375 11.423076
v -0.172485 0.016375 13.707688
v -3.143546 0.016375 15.992305
v -3.143546 0.016376 18.276917
v -3.143546 0.016376 20.561531
v -3.143546 0.016376 22.846144
v -0.172485 0.016376 25.130760
v -0.172485 0.016376 27.415373
v 0.157359 -0.134156 -27.415379
v 0.157359 -0.134156 -25.130764
v 0.157359 -0.134155 -22.846149
v 0.157359 -0.134155 -20.561535
v 3.376009 -0.134155 -18.276918
v 3.376009 -0.134155 -15.992307
v 3.376009 -0.134155 -13.707690
v 3.376009 -0.134155 -11.423076
v 0.157359 -0.134155 -9.138461
v -2.070937 -0.134155 -6.853847
v -2.070937 -0.134155 -4.569232
v -2.070937 -0.134155 -2.284618
v -2.070937 -0.134154 -0.000004
v 0.157359 -0.134154 2.284613
v 2.880832 -0.134154 4.569225
v 2.880832 -0.134154 6.853841
v 2.880832 -0.134154 9.138454
v 2.880832 -0.134154 11.423070
v 0.157359 -0.134154 13.707683
v -2.813702 -0.134154 15.992299
v -2.813702 -0.134154 18.276913
v -2.813702 -0.134154 20.561527
v -2.813702 -0.134154 22.846140
v 0.157359 -0.134153 25.130756
v 0.157359 -0.134153 27.415369
v 0.157360 0.016374 -27.415367
v 0.157359 0.016374 -25.130753
v 0.157359 0.016374 -22.846140
v 0.157359 0.016374 -20.561525
v 3.376009 0.016374 -18.276911
v 3.376009 0.016374 -15.992295
v 3.376009 0.016374 -13.707681
v 3.376009 0.016374 -11.423066
v 0.157359 0.016374 -9.138452
v -2.070937 0.016374 -6.853837
v -2.070937 0.016375 -4.569223
v -2.070937 0.016375 -2.284609
v -2.070937 0.016375 0.000005
v 0.157359 0.016375 2.284621
v 2.880832 0.016375 4.569234
v 2.880832 0.016375 6.853850
v 2.880831 0.016375 9.138462
v 2.880831 0.016375 11.423079
v 0.157359 0.016375 13.707691
v -2.813702 0.016375 15.992307
v -2.813702 0.016376 18.276918
v -2.813702 0.016376 20.561535
v -2.813702 0.016376 22.846148
v 0.157359 0.016376 25.130764
v 0.157358 0.016376 27.415377
vn 0.000000 1.000000 -0.000000
vn 0.000000 -1.000000 0.000000
vn -1.000000 -0.000002 0.000000
vn -0.578817 -0.000053 0.815458
vn -0.578817 -0.000043 0.815457
vn -1.000000 -0.000003 -0.000000
vn -0.578817 0.000029 -0.815458
vn -0.578817 0.000024 -0.815458
vn -0.715875 0.000017 -0.698229
vn -0.715875 0.000025 -0.698228
vn -1.000000 -0.000005 0.000000
vn -0.715875 -0.000016 0.698228
vn -0.715875 -0.000010 0.698228
vn -0.642680 -0.000011 0.766135
vn -0.642680 -0.000006 0.766135
vn -0.642680 -0.000006 -0.766135
vn -0.642680 -0.000001 -0.766135
vn -0.609574 -0.000005 -0.792729
vn -0.609574 -0.000006 -0.792729
vn -1.000000 0.000000 0.000000
vn -0.609574 0.000020 0.792729
vn -0.609574 0.000019 0.792729
vn 1.000000 0.000006 -0.000000
vn 0.609574 0.000102 -0.792729
vn 0.609574 0.000094 -0.792729
vn 1.000000 0.000004 -0.000000
vn 0.609574 -0.000088 0.792729
vn 0.609574 -0.000083 0.792729
vn 0.642680 -0.000080 0.766135
vn 1.000000 0.000003 -0.000000
vn 0.642680 0.000080 -0.766135
vn 0.642680 0.000085 -0.766135
vn 0.715876 0.000075 -0.698228
vn 0.715876 0.000074 -0.698228
vn 1.000000 0.000001 0.000000
vn 1.000000 0.000000 -0.000000
vn 0.715875 -0.000073 0.698228
vn 0.715875 -0.000071 0.698228
vn 0.578816 -0.000083 0.815458
vn 1.000000 -0.000003 0.000000
vn 0.578816 0.000081 -0.815458
vn 1.000000 -0.000004 0.000000
vn 0.000000 0.000063 -1.000000
vn 0.000006 0.000076 -1.000000
vn 0.000005 0.000076 -1.000000
vn 0.000007 0.000089 -1.000000
vn -0.000012 -0.000025 1.000000
vn 0.000000 -0.000051 1.000000
vn -0.000011 -0.000051 1.000000
vn -0.000003 -0.000114 1.000000
vn 0.000007 0.000063 -1.000000
vn -0.000010 0.000038 1.000000
vn -0.000002 -0.000025 1.000000
g Cube_Cube_Material
usemtl Material
s off
f 216//1 16//1 6//1
f 216//1 6//1 91//1
f 215//1 216//1 90//1
f 216//1 91//1 90//1
f 214//1 215//1 89//1
f 215//1 90//1 89//1
f 213//1 214//1 88//1
f 214//1 89//1 88//1
f 212//1 213//1 87//1
f 213//1 88//1 87//1
f 211//1 212//1 86//1
f 212//1 87//1 86//1
f 210//1 211//1 86//1
f 210//1 86//1 85//1
f 209//1 210//1 85//1
f 209//1 85//1 84//1
f 208//1 209//1 83//1
f 209//1 84//1 83//1
f 207//1 208//1 83//1
f 207//1 83//1 82//1
f 206//1 207//1 81//1
f 207//1 82//1 81//1
f 205//1 206//1 80//1
f 206//1 81//1 80//1
f 204//1 205//1 79//1
f 205//1 80//1 79//1
f 203//1 204//1 79//1
f 203//1 79//1 78//1
f 202//1 203//1 78//1
f 202//1 78//1 77//1
f 201//1 202//1 77//1
f 201//1 77//1 76//1
f 200//1 201//1 76//1
f 200//1 76//1 75//1
f 199//1 200//1 75//1
f 199//1 75//1 74//1
f 198//1 199//1 74//1
f 198//1 74//1 73//1
f 197//1 198//1 73//1
f 197//1 73//1 72//1
f 196//1 197//1 72//1
f 196//1 72//1 71//1
f 195//1 196//1 70//1
f 196//1 71//1 70//1
f 194//1 195//1 70//1
f 194//1 70//1 69//1
f 193//1 194//1 69//1
f 193//1 69//1 68//1
f 192//1 193//1 68//1
f 192//1 68//1 67//1
f 15//1 192//1 67//1
f 15//1 67//1 5//1
f 117//2 9//2 13//2
f 117//2 13//2 167//2
f 118//2 117//2 167//2
f 118//2 167//2 168//2
f 119//2 118//2 168//2
f 119//2 168//2 169//2
f 120//2 119//2 169//2
f 120//2 169//2 170//2
f 121//2 120//2 170//2
f 121//2 170//2 171//2
f 122//2 121//2 171//2
f 122//2 171//2 172//2
f 123//2 122//2 172//2
f 123//2 172//2 173//2
f 124//2 123//2 173//2
f 124//2 173//2 174//2
f 125//2 124//2 175//2
f 124//2 174//2 175//2
f 126//2 125//2 176//2
f 125//2 175//2 176//2
f 127//2 126//2 176//2
f 127//2 176//2 177//2
f 128//2 127//2 177//2
f 128//2 177//2 178//2
f 129//2 128//2 179//2
f 128//2 178//2 179//2
f 130//2 129//2 179//2
f 130//2 179//2 180//2
f 131//2 130//2 180//2
f 131//2 180//2 181//2
f 132//2 131//2 181//2
f 132//2 181//2 182//2
f 133//2 132//2 182//2
f 133//2 182//2 183//2
f 134//2 133//2 183//2
f 134//2 183//2 184//2
f 135//2 134//2 185//2
f 134//2 184//2 185//2
f 136//2 135//2 186//2
f 135//2 185//2 186//2
f 137//2 136//2 186//2
f 137//2 186//2 187//2
f 138//2 137//2 187//2
f 138//2 187//2 188//2
f 139//2 138//2 188//2
f 139//2 188//2 189//2
f 140//2 139//2 189//2
f 140//2 189//2 190//2
f 141//2 140//2 190//2
f 141//2 190//2 191//2
f 10//2 141//2 191//2
f 10//2 191//2 14//2
f 41//2 2//2 14//2
f 41//2 14//2 191//2
f 40//2 41//2 191//2
f 40//2 191//2 190//2
f 39//2 40//2 190//2
f 39//2 190//2 189//2
f 38//2 39//2 189//2
f 38//2 189//2 188//2
f 37//2 38//2 188//2
f 37//2 188//2 187//2
f 36//2 37//2 187//2
f 36//2 187//2 186//2
f 35//2 36//2 185//2
f 36//2 186//2 185//2
f 34//2 35//2 184//2
f 35//2 185//2 184//2
f 33//2 34//2 184//2
f 33//2 184//2 183//2
f 32//2 33//2 183//2
f 32//2 183//2 182//2
f 31//2 32//2 182//2
f 31//2 182//2 181//2
f 30//2 31//2 181//2
f 30//2 181//2 180//2
f 29//2 30//2 180//2
f 29//2 180//2 179//2
f 28//2 29//2 178//2
f 29//2 179//2 178//2
f 27//2 28//2 178//2
f 27//2 178//2 177//2
f 26//2 27//2 177//2
f 26//2 177//2 176//2
f 25//2 26//2 175//2
f 26//2 176//2 175//2
f 24//2 25//2 174//2
f 25//2 175//2 174//2
f 23//2 24//2 174//2
f 23//2 174//2 173//2
f 22//2 23//2 173//2
f 22//2 173//2 172//2
f 21//2 22//2 172//2
f 21//2 172//2 171//2
f 20//2 21//2 171//2
f 20//2 171//2 170//2
f 19//2 20//2 170//2
f 19//2 170//2 169//2
f 18//2 19//2 169//2
f 18//2 169//2 168//2
f 17//2 18//2 168//2
f 17//2 168//2 167//2
f 1//2 17//2 167//2
f 1//2 167//2 13//2
f 92//1 7//1 12//1
f 92//1 12//1 166//1
f 93//1 92//1 166//1
f 93//1 166//1 165//1
f 94//1 93//1 164//1
f 93//1 165//1 164//1
f 95//1 94//1 164//1
f 95//1 164//1 163//1
f 96//1 95//1 163//1
f 96//1 163//1 162//1
f 97//1 96//1 162//1
f 97//1 162//1 161//1
f 98//1 97//1 161//1
f 98//1 161//1 160//1
f 99//1 98//1 160//1
f 99//1 160//1 159//1
f 100//1 99//1 159//1
f 100//1 159//1 158//1
f 101//1 100//1 158//1
f 101//1 158//1 157//1
f 102//1 101//1 157//1
f 102//1 157//1 156//1
f 103//1 102//1 155//1
f 102//1 156//1 155//1
f 104//1 103//1 154//1
f 103//1 155//1 154//1
f 105//1 104//1 154//1
f 105//1 154//1 153//1
f 106//1 105//1 153//1
f 106//1 153//1 152//1
f 107//1 106//1 152//1
f 107//1 152//1 151//1
f 108//1 107//1 151//1
f 108//1 151//1 150//1
f 109//1 108//1 150//1
f 109//1 150//1 149//1
f 110//1 109//1 149//1
f 110//1 149//1 148//1
f 111//1 110//1 148//1
f 111//1 148//1 147//1
f 112//1 111//1 147//1
f 112//1 147//1 146//1
f 113//1 112//1 145//1
f 112//1 146//1 145//1
f 114//1 113//1 145//1
f 114//1 145//1 144//1
f 115//1 114//1 144//1
f 115//1 144//1 143//1
f 116//1 115//1 143//1
f 116//1 143//1 142//1
f 8//1 116//1 142//1
f 8//1 142//1 11//1
f 66//2 4//2 9//2
f 66//2 9//2 117//2
f 65//2 66//2 117//2
f 65//2 117//2 118//2
f 64//2 65//2 118//2
f 64//2 118//2 119//2
f 63//2 64//2 119//2
f 63//2 119//2 120//2
f 62//2 63//2 120//2
f 62//2 120//2 121//2
f 61//2 62//2 121//2
f 61//2 121//2 122//2
f 60//2 61//2 122//2
f 60//2 122//2 123//2
f 59//2 60//2 123//2
f 59//2 123//2 124//2
f 58//2 59//2 125//2
f 59//2 124//2 125//2
f 57//2 58//2 126//2
f 58//2 125//2 126//2
f 56//2 57//2 126//2
f 56//2 126//2 127//2
f 55//2 56//2 127//2
f 55//2 127//2 128//2
f 54//2 55//2 128//2
f 54//2 128//2 129//2
f 53//2 54//2 129//2
f 53//2 129//2 130//2
f 52//2 53//2 130//2
f 52//2 130//2 131//2
f 51//2 52//2 131//2
f 51//2 131//2 132//2
f 50//2 51//2 132//2
f 50//2 132//2 133//2
f 49//2 50//2 133//2
f 49//2 133//2 134//2
f 48//2 49//2 135//2
f 49//2 134//2 135//2
f 47//2 48//2 136//2
f 48//2 135//2 136//2
f 46//2 47//2 136//2
f 46//2 136//2 137//2
f 45//2 46//2 137//2
f 45//2 137//2 138//2
f 44//2 45//2 139//2
f 45//2 138//2 139//2
f 43//2 44//2 139//2
f 43//2 139//2 140//2
f 42//2 43//2 140//2
f 42//2 140//2 141//2
f 3//2 42//2 141//2
f 3//2 141//2 10//2
f 116//3 8//3 66//3
f 8//3 4//3 66//3
f 115//3 116//3 65//3
f 116//3 66//3 65//3
f 114//3 115//3 64//3
f 115//3 65//3 64//3
f 113//3 114//3 63//3
f 114//3 64//3 63//3
f 112//4 113//4 63//4
f 112//5 63//5 62//5
f 111//3 112//3 61//3
f 112//3 62//3 61//3
f 110//3 111//3 60//3
f 111//3 61//3 60//3
f 109//6 110//6 59//6
f 110//3 60//3 59//3
f 108//7 109//7 58//7
f 109//8 59//8 58//8
f 107//9 108//9 57//9
f 108//10 58//10 57//10
f 106//11 107//11 56//11
f 107//11 57//11 56//11
f 105//11 106//11 55//11
f 106//11 56//11 55//11
f 104//11 105//11 55//11
f 104//11 55//11 54//11
f 103//12 104//12 54//12
f 103//13 54//13 53//13
f 102//14 103//14 53//14
f 102//15 53//15 52//15
f 101//3 102//3 52//3
f 101//3 52//3 51//3
f 100//3 101//3 51//3
f 100//3 51//3 50//3
f 99//3 100//3 50//3
f 99//3 50//3 49//3
f 98//16 99//16 48//16
f 99//17 49//17 48//17
f 97//18 98//18 47//18
f 98//19 48//19 47//19
f 96//20 97//20 47//20
f 96//20 47//20 46//20
f 95//20 96//20 46//20
f 95//20 46//20 45//20
f 94//20 95//20 45//20
f 94//20 45//20 44//20
f 93//21 94//21 44//21
f 93//22 44//22 43//22
f 92//3 93//3 43//3
f 92//3 43//3 42//3
f 7//3 92//3 42//3
f 7//3 42//3 3//3
f 91//23 6//23 2//23
f 91//23 2//23 41//23
f 90//23 91//23 41//23
f 90//23 41//23 40//23
f 89//24 90//24 39//24
f 90//25 40//25 39//25
f 88//26 89//26 39//26
f 88//26 39//26 38//26
f 87//26 88//26 38//26
f 87//26 38//26 37//26
f 86//26 87//26 37//26
f 86//26 37//26 36//26
f 85//27 86//27 36//27
f 85//28 36//28 35//28
f 84//29 85//29 35//29
f 84//29 35//29 34//29
f 83//30 84//30 34//30
f 83//30 34//30 33//30
f 82//30 83//30 33//30
f 82//30 33//30 32//30
f 81//30 82//30 32//30
f 81//30 32//30 31//30
f 80//31 81//31 30//31
f 81//32 31//32 30//32
f 79//33 80//33 29//33
f 80//34 30//34 29//34
f 78//35 79//35 29//35
f 78//36 29//36 28//36
f 77//36 78//36 28//36
f 77//36 28//36 27//36
f 76//36 77//36 27//36
f 76//36 27//36 26//36
f 75//37 76//37 26//37
f 75//38 26//38 25//38
f 74//39 75//39 25//39
f 74//39 25//39 24//39
f 73//36 74//36 24//36
f 73//36 24//36 23//36
f 72//36 73//36 23//36
f 72//40 23//40 22//40
f 71//40 72//40 22//40
f 71//40 22//40 21//40
f 70//41 71//41 21//41
f 70//41 21//41 20//41
f 69//40 70//40 20//40
f 69//40 20//40 19//40
f 68//40 69//40 19//40
f 68//40 19//40 18//40
f 67//40 68//40 18//40
f 67//42 18//42 17//42
f 17//42 1//42 5//42
f 17//42 5//42 67//42
f 13//43 9//43 11//43
f 13//44 11//44 15//44
f 1//45 13//45 15//45
f 1//46 15//46 5//46
f 16//47 12//47 10//47
f 16//48 10//48 14//48
f 6//49 16//49 14//49
f 6//50 14//50 2//50
f 9//51 4//51 11//51
f 4//45 8//45 11//45
f 12//52 7//52 3//52
f 12//53 3//53 10//53
g Cube_Cube_Material.001
usemtl Material.001
f 166//1 12//1 16//1
f 166//1 16//1 216//1
f 165//1 166//1 216//1
f 165//1 216//1 215//1
f 164//1 165//1 214//1
f 165//1 215//1 214//1
f 163//1 164//1 214//1
f 163//1 214//1 213//1
f 162//1 163//1 213//1
f 162//1 213//1 212//1
f 161//1 162//1 212//1
f 161//1 212//1 211//1
f 160//1 161//1 211//1
f 160//1 211//1 210//1
f 159//1 160//1 210//1
f 159//1 210//1 209//1
f 158//1 159//1 209//1
f 158//1 209//1 208//1
f 157//1 158//1 208//1
f 157//1 208//1 207//1
f 156//1 157//1 207//1
f 156//1 207//1 206//1
f 155//1 156//1 205//1
f 156//1 206//1 205//1
f 154//1 155//1 204//1
f 155//1 205//1 204//1
f 153//1 154//1 204//1
f 153//1 204//1 203//1
f 152//1 153//1 203//1
f 152//1 203//1 202//1
f 151//1 152//1 202//1
f 151//1 202//1 201//1
f 150//1 151//1 201//1
f 150//1 201//1 200//1
f 149//1 150//1 200//1
f 149//1 200//1 199//1
f 148//1 149//1 199//1
f 148//1 199//1 198//1
f 147//1 148//1 198//1
f 147//1 198//1 197//1
f 146//1 147//1 197//1
f 146//1 197//1 196//1
f 145//1 146//1 195//1
f 146//1 196//1 195//1
f 144//1 145//1 195//1
f 144//1 195//1 194//1
f 143//1 144//1 194//1
f 143//1 194//1 193//1
f 142//1 143//1 193//1
f 142//1 193//1 192//1
f 11//1 142//1 192//1
f 11//1 192//1 15//1
