# Blender3D v249 OBJ File: 
# www.blender3d.org
mtllib Reta.mtl
v 21.659998 0.228691 -0.324588
v 21.659998 0.228691 0.107307
v -21.660000 0.228691 0.107307
v -21.659990 0.228691 -0.324588
v 21.660007 0.430662 -0.324587
v 21.659985 0.430662 0.107307
v -21.660006 0.430662 0.107306
v -21.659996 0.430662 -0.324588
vn 0.000000 0.000002 -1.000000
vn 0.000000 0.000001 -1.000000
vn -1.000000 -0.000028 -0.000022
vn -0.000000 -0.000002 1.000000
vn -0.000000 0.000001 1.000000
vn 1.000000 -0.000047 0.000000
vn 1.000000 0.000066 0.000053
vn 0.000000 1.000000 0.000000
vn -0.000000 -1.000000 0.000000
usemtl Material
s off
f 5//1 1//1 4//1
f 5//2 4//2 8//2
f 3//3 7//3 8//3
f 3//3 8//3 4//3
f 2//4 6//4 3//4
f 6//5 7//5 3//5
f 1//6 5//6 2//6
f 5//7 6//7 2//7
f 5//8 8//8 6//8
f 8//8 7//8 6//8
f 1//9 2//9 4//9
f 2//9 3//9 4//9
